<svg width="100" height="100" viewBox="0 0 100 100" fill="none" xmlns="http://www.w3.org/2000/svg">
<rect x="0.5" y="0.5" width="99" height="99" rx="14.5" fill="white" stroke="#EBEBEB"/>
<path d="M49.991 39.5834H50.0098M33.3327 45.8334V63.5418M41.666 45.8334V63.5418M58.3327 45.8334V63.5418M66.666 45.8334V63.5418M29.166 42.8542C29.166 40.3605 30.1702 38.8334 32.2493 37.6751L40.8119 32.9105C45.2973 30.4167 47.541 29.1667 49.9994 29.1667C52.4577 29.1667 54.7014 30.4167 59.1869 32.9105L67.7494 37.6751C69.8264 38.8334 70.8327 40.3605 70.8327 42.8542C70.8327 43.5292 70.8327 43.8688 70.7598 44.1459C70.3723 45.6042 69.0494 45.8355 67.7723 45.8355H32.2264C30.9493 45.8355 29.6285 45.6063 29.2389 44.1459C29.166 43.8667 29.166 43.5292 29.166 42.8542ZM64.5827 63.5418H35.416C33.7584 63.5418 32.1687 64.2002 30.9966 65.3723C29.8245 66.5444 29.166 68.1341 29.166 69.7918C29.166 70.068 29.2758 70.333 29.4711 70.5283C29.6665 70.7237 29.9314 70.8334 30.2077 70.8334H69.791C70.0673 70.8334 70.3322 70.7237 70.5276 70.5283C70.7229 70.333 70.8327 70.068 70.8327 69.7918C70.8327 68.1341 70.1742 66.5444 69.0021 65.3723C67.83 64.2002 66.2403 63.5418 64.5827 63.5418Z" stroke="#2563EB" stroke-width="3" stroke-linecap="round" stroke-linejoin="round"/>
</svg>
