<svg width="100" height="100" viewBox="0 0 100 100" fill="none" xmlns="http://www.w3.org/2000/svg">
<rect x="0.5" y="0.5" width="99" height="99" rx="14.5" fill="white" stroke="#EBEBEB"/>
<path d="M29.166 60.4167V39.5834C29.166 38.4783 29.605 37.4185 30.3864 36.6371C31.1678 35.8557 32.2276 35.4167 33.3327 35.4167H66.666C67.7711 35.4167 68.8309 35.8557 69.6123 36.6371C70.3937 37.4185 70.8327 38.4783 70.8327 39.5834V60.4167C70.8327 61.5218 70.3937 62.5816 69.6123 63.363C68.8309 64.1444 67.7711 64.5834 66.666 64.5834H33.3327C32.2276 64.5834 31.1678 64.1444 30.3864 63.363C29.605 62.5816 29.166 61.5218 29.166 60.4167Z" stroke="#2563EB" stroke-width="3" stroke-linecap="round" stroke-linejoin="round"/>
<path d="M63.5404 50.0208L63.5612 49.9979M36.457 50.0208L36.4779 49.9979M49.9987 56.25C48.3411 56.25 46.7514 55.5915 45.5793 54.4194C44.4072 53.2473 43.7487 51.6576 43.7487 50C43.7487 48.3424 44.4072 46.7527 45.5793 45.5806C46.7514 44.4085 48.3411 43.75 49.9987 43.75C51.6563 43.75 53.246 44.4085 54.4181 45.5806C55.5902 46.7527 56.2487 48.3424 56.2487 50C56.2487 51.6576 55.5902 53.2473 54.4181 54.4194C53.246 55.5915 51.6563 56.25 49.9987 56.25Z" stroke="#2563EB" stroke-width="3" stroke-linecap="round" stroke-linejoin="round"/>
</svg>
