<svg width="650" height="412" viewBox="0 0 650 412" fill="none" xmlns="http://www.w3.org/2000/svg">
<path d="M57.984 84V64.112H50.32V60.96H68.992V64.112H61.328V84H57.984ZM76.9665 84.48C75.2492 84.48 73.7398 84.1067 72.4385 83.36C71.1478 82.6027 70.1398 81.552 69.4145 80.208C68.6998 78.8533 68.3425 77.2853 68.3425 75.504C68.3425 73.616 68.6945 71.9787 69.3985 70.592C70.1132 69.2053 71.1052 68.1333 72.3745 67.376C73.6438 66.6187 75.1212 66.24 76.8065 66.24C78.5665 66.24 80.0652 66.6507 81.3025 67.472C82.5398 68.2827 83.4625 69.44 84.0705 70.944C84.6892 72.448 84.9345 74.2347 84.8065 76.304H81.4625V75.088C81.4412 73.0827 81.0572 71.6 80.3105 70.64C79.5745 69.68 78.4492 69.2 76.9345 69.2C75.2598 69.2 74.0012 69.728 73.1585 70.784C72.3158 71.84 71.8945 73.3653 71.8945 75.36C71.8945 77.2587 72.3158 78.7307 73.1585 79.776C74.0012 80.8107 75.2172 81.328 76.8065 81.328C77.8518 81.328 78.7532 81.0933 79.5105 80.624C80.2785 80.144 80.8758 79.4613 81.3025 78.576L84.5825 79.616C83.9105 81.1627 82.8918 82.3627 81.5265 83.216C80.1612 84.0587 78.6412 84.48 76.9665 84.48ZM70.8065 76.304V73.696H83.1425V76.304H70.8065ZM86.7963 84V81.168C87.4363 81.2853 87.9216 81.2693 88.2523 81.12C88.5936 80.96 88.8443 80.672 89.0043 80.256C89.1749 79.84 89.3189 79.3013 89.4363 78.64C89.6176 77.6693 89.7723 76.5653 89.9003 75.328C90.0389 74.08 90.1616 72.7307 90.2682 71.28C90.3749 69.8293 90.4709 68.3093 90.5563 66.72H102.972V84H99.6123V69.872H93.5643C93.5003 70.7147 93.4256 71.6107 93.3403 72.56C93.2656 73.4987 93.1803 74.432 93.0843 75.36C92.9883 76.288 92.8869 77.1573 92.7803 77.968C92.6736 78.7787 92.5616 79.472 92.4443 80.048C92.2309 81.2 91.9163 82.1173 91.5003 82.8C91.0949 83.472 90.5189 83.904 89.7723 84.096C89.0256 84.2987 88.0336 84.2667 86.7963 84ZM115.123 84.48C113.405 84.48 111.896 84.1067 110.595 83.36C109.304 82.6027 108.296 81.552 107.571 80.208C106.856 78.8533 106.499 77.2853 106.499 75.504C106.499 73.616 106.851 71.9787 107.555 70.592C108.269 69.2053 109.261 68.1333 110.531 67.376C111.8 66.6187 113.277 66.24 114.963 66.24C116.723 66.24 118.221 66.6507 119.459 67.472C120.696 68.2827 121.619 69.44 122.227 70.944C122.845 72.448 123.091 74.2347 122.963 76.304H119.619V75.088C119.597 73.0827 119.213 71.6 118.467 70.64C117.731 69.68 116.605 69.2 115.091 69.2C113.416 69.2 112.157 69.728 111.315 70.784C110.472 71.84 110.051 73.3653 110.051 75.36C110.051 77.2587 110.472 78.7307 111.315 79.776C112.157 80.8107 113.373 81.328 114.963 81.328C116.008 81.328 116.909 81.0933 117.667 80.624C118.435 80.144 119.032 79.4613 119.459 78.576L122.739 79.616C122.067 81.1627 121.048 82.3627 119.683 83.216C118.317 84.0587 116.797 84.48 115.123 84.48ZM108.963 76.304V73.696H121.299V76.304H108.963ZM134.681 91.2V84.304C132.995 84.5707 131.465 84.3893 130.089 83.76C128.713 83.1307 127.619 82.1067 126.809 80.688C125.998 79.2693 125.593 77.4987 125.593 75.376C125.593 73.2533 125.998 71.4773 126.809 70.048C127.619 68.6187 128.713 67.5893 130.089 66.96C131.465 66.3307 132.995 66.1493 134.681 66.416V61.184H137.689V66.416C139.374 66.1493 140.905 66.3307 142.281 66.96C143.657 67.5893 144.75 68.6187 145.561 70.048C146.371 71.4773 146.777 73.2533 146.777 75.376C146.777 77.4987 146.371 79.2693 145.561 80.688C144.75 82.1067 143.657 83.1307 142.281 83.76C140.905 84.3893 139.374 84.5707 137.689 84.304V91.2H134.681ZM134.681 81.28V69.456C133.817 69.3067 133.033 69.3333 132.329 69.536C131.635 69.7387 131.043 70.096 130.553 70.608C130.062 71.1093 129.683 71.7653 129.417 72.576C129.15 73.376 129.016 74.3093 129.016 75.376C129.016 76.4427 129.15 77.376 129.417 78.176C129.694 78.976 130.083 79.632 130.585 80.144C131.097 80.6453 131.699 80.9973 132.392 81.2C133.086 81.392 133.849 81.4187 134.681 81.28ZM137.689 81.28C138.521 81.4187 139.283 81.392 139.977 81.2C140.67 81.008 141.267 80.6613 141.769 80.16C142.281 79.6587 142.67 79.008 142.937 78.208C143.214 77.3973 143.353 76.4533 143.353 75.376C143.353 74.288 143.219 73.344 142.953 72.544C142.686 71.7333 142.307 71.0773 141.817 70.576C141.326 70.064 140.729 69.712 140.025 69.52C139.331 69.328 138.553 69.3067 137.689 69.456V81.28ZM157.807 84.48C156.079 84.48 154.58 84.0907 153.311 83.312C152.041 82.5333 151.06 81.4613 150.367 80.096C149.684 78.72 149.343 77.136 149.343 75.344C149.343 73.5413 149.695 71.9573 150.399 70.592C151.103 69.216 152.089 68.1493 153.359 67.392C154.628 66.624 156.111 66.24 157.807 66.24C159.535 66.24 161.033 66.6293 162.303 67.408C163.572 68.1867 164.553 69.2587 165.247 70.624C165.94 71.9893 166.287 73.5627 166.287 75.344C166.287 77.1467 165.935 78.736 165.231 80.112C164.537 81.4773 163.556 82.5493 162.287 83.328C161.017 84.096 159.524 84.48 157.807 84.48ZM157.807 81.328C159.46 81.328 160.692 80.7733 161.503 79.664C162.324 78.544 162.735 77.104 162.735 75.344C162.735 73.5413 162.319 72.1013 161.487 71.024C160.665 69.936 159.439 69.392 157.807 69.392C156.687 69.392 155.764 69.648 155.039 70.16C154.313 70.6613 153.775 71.36 153.423 72.256C153.071 73.1413 152.895 74.1707 152.895 75.344C152.895 77.1573 153.311 78.608 154.143 79.696C154.975 80.784 156.196 81.328 157.807 81.328ZM169.787 84V66.72H173.131V73.776H181.563V66.72H184.907V84H181.563V76.928H173.131V84H169.787Z" fill="black"/>
<path d="M75 247.75C85.3553 247.75 93.75 239.355 93.75 229C93.75 218.645 85.3553 210.25 75 210.25C64.6447 210.25 56.25 218.645 56.25 229C56.25 239.355 64.6447 247.75 75 247.75Z" stroke="#2563EB" stroke-width="3"/>
<path d="M84.375 229H75.5208C75.3827 229 75.2502 228.945 75.1525 228.847C75.0549 228.75 75 228.617 75 228.479V221.708" stroke="#2563EB" stroke-width="3" stroke-linecap="round"/>
<path d="M121.12 235V223.48H130.28V235H128.608V225.056H122.792V235H121.12ZM136.582 235.24C135.756 235.24 135.062 235.04 134.502 234.64C133.942 234.235 133.518 233.688 133.23 233C132.942 232.312 132.798 231.536 132.798 230.672C132.798 229.808 132.94 229.032 133.222 228.344C133.51 227.656 133.932 227.115 134.486 226.72C135.046 226.32 135.734 226.12 136.55 226.12C137.361 226.12 138.06 226.32 138.646 226.72C139.238 227.115 139.694 227.656 140.014 228.344C140.334 229.027 140.494 229.803 140.494 230.672C140.494 231.536 140.334 232.315 140.014 233.008C139.7 233.696 139.249 234.24 138.662 234.64C138.081 235.04 137.388 235.24 136.582 235.24ZM132.518 238.84V226.36H134.006V232.576H134.198V238.84H132.518ZM136.35 233.728C136.884 233.728 137.324 233.592 137.67 233.32C138.022 233.048 138.284 232.683 138.454 232.224C138.63 231.76 138.718 231.243 138.718 230.672C138.718 230.107 138.63 229.595 138.454 229.136C138.284 228.677 138.02 228.312 137.662 228.04C137.305 227.768 136.849 227.632 136.294 227.632C135.772 227.632 135.34 227.76 134.998 228.016C134.662 228.272 134.412 228.629 134.246 229.088C134.086 229.547 134.006 230.075 134.006 230.672C134.006 231.269 134.086 231.797 134.246 232.256C134.406 232.715 134.66 233.075 135.006 233.336C135.353 233.597 135.801 233.728 136.35 233.728ZM149.541 226.36V235H147.933V228.992L143.613 235H142.253V226.36H143.861V232.248L148.189 226.36H149.541ZM155.608 235.24C154.75 235.24 153.995 235.053 153.344 234.68C152.699 234.301 152.195 233.776 151.832 233.104C151.475 232.427 151.296 231.643 151.296 230.752C151.296 229.808 151.472 228.989 151.824 228.296C152.182 227.603 152.678 227.067 153.312 226.688C153.947 226.309 154.686 226.12 155.528 226.12C156.408 226.12 157.158 226.325 157.776 226.736C158.395 227.141 158.856 227.72 159.16 228.472C159.47 229.224 159.592 230.117 159.528 231.152H157.856V230.544C157.846 229.541 157.654 228.8 157.28 228.32C156.912 227.84 156.35 227.6 155.592 227.6C154.755 227.6 154.126 227.864 153.704 228.392C153.283 228.92 153.072 229.683 153.072 230.68C153.072 231.629 153.283 232.365 153.704 232.888C154.126 233.405 154.734 233.664 155.528 233.664C156.051 233.664 156.502 233.547 156.88 233.312C157.264 233.072 157.563 232.731 157.776 232.288L159.416 232.808C159.08 233.581 158.571 234.181 157.888 234.608C157.206 235.029 156.446 235.24 155.608 235.24ZM152.528 231.152V229.848H158.696V231.152H152.528ZM161.081 235V226.36H162.481L165.673 232.696L168.857 226.36H170.265V235H168.649V229.784L166.049 235H165.289L162.689 229.784V235H161.081ZM178.794 235.24C177.956 235.24 177.204 235.061 176.538 234.704C175.876 234.347 175.354 233.853 174.97 233.224L176.298 232.352C176.607 232.768 176.964 233.091 177.37 233.32C177.78 233.549 178.242 233.664 178.754 233.664C179.287 233.664 179.708 233.544 180.018 233.304C180.332 233.059 180.49 232.731 180.49 232.32C180.49 231.995 180.399 231.755 180.218 231.6C180.042 231.44 179.796 231.336 179.482 231.288C179.172 231.24 178.82 231.216 178.426 231.216H177.658V229.872H178.426C178.948 229.872 179.378 229.8 179.714 229.656C180.055 229.507 180.226 229.227 180.226 228.816C180.226 228.416 180.079 228.128 179.786 227.952C179.498 227.776 179.154 227.688 178.754 227.688C178.306 227.688 177.871 227.784 177.45 227.976C177.028 228.163 176.66 228.395 176.346 228.672L175.37 227.528C175.828 227.085 176.351 226.741 176.938 226.496C177.53 226.245 178.164 226.12 178.842 226.12C179.396 226.12 179.908 226.219 180.378 226.416C180.852 226.608 181.231 226.893 181.514 227.272C181.802 227.651 181.946 228.117 181.946 228.672C181.946 229.104 181.85 229.499 181.658 229.856C181.466 230.213 181.172 230.539 180.778 230.832L180.73 230.264C181.055 230.365 181.327 230.528 181.546 230.752C181.764 230.976 181.927 231.24 182.034 231.544C182.146 231.843 182.202 232.16 182.202 232.496C182.202 233.077 182.047 233.573 181.738 233.984C181.434 234.395 181.023 234.707 180.506 234.92C179.988 235.133 179.418 235.24 178.794 235.24ZM183.956 235V226.36H187.756C188.006 226.36 188.257 226.376 188.508 226.408C188.758 226.435 188.98 226.475 189.172 226.528C189.609 226.651 189.982 226.896 190.292 227.264C190.601 227.627 190.756 228.112 190.756 228.72C190.756 229.067 190.702 229.36 190.596 229.6C190.489 229.835 190.342 230.037 190.156 230.208C190.07 230.283 189.98 230.349 189.884 230.408C189.788 230.467 189.692 230.512 189.596 230.544C189.793 230.576 189.988 230.645 190.18 230.752C190.473 230.907 190.713 231.131 190.9 231.424C191.092 231.712 191.188 232.099 191.188 232.584C191.188 233.165 191.046 233.653 190.764 234.048C190.481 234.437 190.081 234.704 189.564 234.848C189.361 234.907 189.132 234.947 188.876 234.968C188.625 234.989 188.374 235 188.124 235H183.956ZM185.652 233.68H188.02C188.132 233.68 188.26 233.669 188.404 233.648C188.548 233.627 188.676 233.597 188.788 233.56C189.028 233.485 189.198 233.349 189.3 233.152C189.406 232.955 189.46 232.744 189.46 232.52C189.46 232.216 189.38 231.973 189.22 231.792C189.06 231.605 188.857 231.485 188.612 231.432C188.505 231.395 188.388 231.373 188.26 231.368C188.132 231.363 188.022 231.36 187.932 231.36H185.652V233.68ZM185.652 230.016H187.524C187.678 230.016 187.836 230.008 187.996 229.992C188.156 229.971 188.294 229.936 188.412 229.888C188.62 229.808 188.774 229.675 188.876 229.488C188.977 229.296 189.028 229.088 189.028 228.864C189.028 228.619 188.972 228.4 188.86 228.208C188.748 228.016 188.58 227.883 188.356 227.808C188.201 227.755 188.022 227.725 187.82 227.72C187.622 227.709 187.497 227.704 187.444 227.704H185.652V230.016ZM196.544 235.24C195.68 235.24 194.931 235.045 194.296 234.656C193.661 234.267 193.171 233.731 192.824 233.048C192.483 232.36 192.312 231.568 192.312 230.672C192.312 229.771 192.488 228.979 192.84 228.296C193.192 227.608 193.685 227.075 194.32 226.696C194.955 226.312 195.696 226.12 196.544 226.12C197.408 226.12 198.157 226.315 198.792 226.704C199.427 227.093 199.917 227.629 200.264 228.312C200.611 228.995 200.784 229.781 200.784 230.672C200.784 231.573 200.608 232.368 200.256 233.056C199.909 233.739 199.419 234.275 198.784 234.664C198.149 235.048 197.403 235.24 196.544 235.24ZM196.544 233.664C197.371 233.664 197.987 233.387 198.392 232.832C198.803 232.272 199.008 231.552 199.008 230.672C199.008 229.771 198.8 229.051 198.384 228.512C197.973 227.968 197.36 227.696 196.544 227.696C195.984 227.696 195.523 227.824 195.16 228.08C194.797 228.331 194.528 228.68 194.352 229.128C194.176 229.571 194.088 230.085 194.088 230.672C194.088 231.579 194.296 232.304 194.712 232.848C195.128 233.392 195.739 233.664 196.544 233.664ZM202.534 235V226.36H204.206V229.888H208.422V226.36H210.094V235H208.422V231.464H204.206V235H202.534ZM212.331 235L212.339 226.36H214.035V230.52L217.427 226.36H219.555L215.971 230.68L219.923 235H217.651L214.035 230.84V235H212.331ZM224.325 235.24C223.461 235.24 222.712 235.045 222.077 234.656C221.442 234.267 220.952 233.731 220.605 233.048C220.264 232.36 220.093 231.568 220.093 230.672C220.093 229.771 220.269 228.979 220.621 228.296C220.973 227.608 221.466 227.075 222.101 226.696C222.736 226.312 223.477 226.12 224.325 226.12C225.189 226.12 225.938 226.315 226.573 226.704C227.208 227.093 227.698 227.629 228.045 228.312C228.392 228.995 228.565 229.781 228.565 230.672C228.565 231.573 228.389 232.368 228.037 233.056C227.69 233.739 227.2 234.275 226.565 234.664C225.93 235.048 225.184 235.24 224.325 235.24ZM224.325 233.664C225.152 233.664 225.768 233.387 226.173 232.832C226.584 232.272 226.789 231.552 226.789 230.672C226.789 229.771 226.581 229.051 226.165 228.512C225.754 227.968 225.141 227.696 224.325 227.696C223.765 227.696 223.304 227.824 222.941 228.08C222.578 228.331 222.309 228.68 222.133 229.128C221.957 229.571 221.869 230.085 221.869 230.672C221.869 231.579 222.077 232.304 222.493 232.848C222.909 233.392 223.52 233.664 224.325 233.664ZM230.315 235V226.36H234.115C234.366 226.36 234.616 226.376 234.867 226.408C235.118 226.435 235.339 226.475 235.531 226.528C235.968 226.651 236.342 226.896 236.651 227.264C236.96 227.627 237.115 228.112 237.115 228.72C237.115 229.067 237.062 229.36 236.955 229.6C236.848 229.835 236.702 230.037 236.515 230.208C236.43 230.283 236.339 230.349 236.243 230.408C236.147 230.467 236.051 230.512 235.955 230.544C236.152 230.576 236.347 230.645 236.539 230.752C236.832 230.907 237.072 231.131 237.259 231.424C237.451 231.712 237.547 232.099 237.547 232.584C237.547 233.165 237.406 233.653 237.123 234.048C236.84 234.437 236.44 234.704 235.923 234.848C235.72 234.907 235.491 234.947 235.235 234.968C234.984 234.989 234.734 235 234.483 235H230.315ZM232.011 233.68H234.379C234.491 233.68 234.619 233.669 234.763 233.648C234.907 233.627 235.035 233.597 235.147 233.56C235.387 233.485 235.558 233.349 235.659 233.152C235.766 232.955 235.819 232.744 235.819 232.52C235.819 232.216 235.739 231.973 235.579 231.792C235.419 231.605 235.216 231.485 234.971 231.432C234.864 231.395 234.747 231.373 234.619 231.368C234.491 231.363 234.382 231.36 234.291 231.36H232.011V233.68ZM232.011 230.016H233.883C234.038 230.016 234.195 230.008 234.355 229.992C234.515 229.971 234.654 229.936 234.771 229.888C234.979 229.808 235.134 229.675 235.235 229.488C235.336 229.296 235.387 229.088 235.387 228.864C235.387 228.619 235.331 228.4 235.219 228.208C235.107 228.016 234.939 227.883 234.715 227.808C234.56 227.755 234.382 227.725 234.179 227.72C233.982 227.709 233.856 227.704 233.803 227.704H232.011V230.016ZM246.05 235.24C245.165 235.24 244.413 235.043 243.794 234.648C243.176 234.253 242.701 233.712 242.37 233.024C242.045 232.336 241.88 231.555 241.874 230.68C241.88 229.789 242.05 229.003 242.386 228.32C242.722 227.632 243.202 227.093 243.826 226.704C244.45 226.315 245.2 226.12 246.074 226.12C247.018 226.12 247.824 226.355 248.49 226.824C249.162 227.293 249.605 227.936 249.818 228.752L248.154 229.232C247.989 228.747 247.717 228.371 247.338 228.104C246.965 227.832 246.536 227.696 246.05 227.696C245.501 227.696 245.05 227.827 244.698 228.088C244.346 228.344 244.085 228.696 243.914 229.144C243.744 229.592 243.656 230.104 243.65 230.68C243.656 231.571 243.858 232.291 244.258 232.84C244.664 233.389 245.261 233.664 246.05 233.664C246.589 233.664 247.024 233.541 247.354 233.296C247.69 233.045 247.946 232.688 248.122 232.224L249.818 232.624C249.536 233.467 249.069 234.115 248.418 234.568C247.768 235.016 246.978 235.24 246.05 235.24ZM256.659 235V225.32L254.491 226.64V224.776L256.659 223.48H258.363V235H256.659ZM261.081 234.992L261.089 233.504L266.105 229.008C266.511 228.651 266.785 228.309 266.929 227.984C267.079 227.659 267.153 227.333 267.153 227.008C267.153 226.597 267.063 226.229 266.881 225.904C266.7 225.573 266.449 225.312 266.129 225.12C265.809 224.928 265.441 224.832 265.025 224.832C264.599 224.832 264.217 224.933 263.881 225.136C263.551 225.333 263.292 225.597 263.105 225.928C262.919 226.259 262.828 226.616 262.833 227H261.121C261.121 226.253 261.289 225.6 261.625 225.04C261.967 224.475 262.433 224.035 263.025 223.72C263.617 223.4 264.295 223.24 265.057 223.24C265.783 223.24 266.433 223.405 267.009 223.736C267.585 224.061 268.039 224.509 268.369 225.08C268.705 225.651 268.873 226.301 268.873 227.032C268.873 227.56 268.804 228.008 268.665 228.376C268.527 228.744 268.319 229.085 268.041 229.4C267.764 229.715 267.417 230.056 267.001 230.424L263.129 233.88L262.945 233.4H268.873V234.992H261.081ZM271.432 233.88V232.112H273.2V233.88H271.432ZM271.44 229.248V227.48H273.208V229.248H271.44ZM280.058 235.24C279.274 235.24 278.581 235.069 277.978 234.728C277.375 234.381 276.901 233.907 276.554 233.304C276.213 232.701 276.042 232.008 276.042 231.224V227.256C276.042 226.472 276.213 225.779 276.554 225.176C276.901 224.573 277.375 224.101 277.978 223.76C278.581 223.413 279.274 223.24 280.058 223.24C280.842 223.24 281.535 223.413 282.138 223.76C282.741 224.101 283.213 224.573 283.554 225.176C283.901 225.779 284.074 226.472 284.074 227.256V231.224C284.074 232.008 283.901 232.701 283.554 233.304C283.213 233.907 282.741 234.381 282.138 234.728C281.535 235.069 280.842 235.24 280.058 235.24ZM280.058 233.64C280.485 233.64 280.871 233.539 281.218 233.336C281.57 233.128 281.85 232.851 282.058 232.504C282.266 232.152 282.37 231.76 282.37 231.328V227.136C282.37 226.709 282.266 226.323 282.058 225.976C281.85 225.624 281.57 225.347 281.218 225.144C280.871 224.936 280.485 224.832 280.058 224.832C279.631 224.832 279.242 224.936 278.89 225.144C278.543 225.347 278.266 225.624 278.058 225.976C277.85 226.323 277.746 226.709 277.746 227.136V231.328C277.746 231.76 277.85 232.152 278.058 232.504C278.266 232.851 278.543 233.128 278.89 233.336C279.242 233.539 279.631 233.64 280.058 233.64ZM290.324 235.24C289.54 235.24 288.846 235.069 288.244 234.728C287.641 234.381 287.166 233.907 286.82 233.304C286.478 232.701 286.308 232.008 286.308 231.224V227.256C286.308 226.472 286.478 225.779 286.82 225.176C287.166 224.573 287.641 224.101 288.244 223.76C288.846 223.413 289.54 223.24 290.324 223.24C291.108 223.24 291.801 223.413 292.404 223.76C293.006 224.101 293.478 224.573 293.819 225.176C294.166 225.779 294.34 226.472 294.34 227.256V231.224C294.34 232.008 294.166 232.701 293.819 233.304C293.478 233.907 293.006 234.381 292.404 234.728C291.801 235.069 291.108 235.24 290.324 235.24ZM290.324 233.64C290.75 233.64 291.137 233.539 291.484 233.336C291.836 233.128 292.116 232.851 292.324 232.504C292.532 232.152 292.636 231.76 292.636 231.328V227.136C292.636 226.709 292.532 226.323 292.324 225.976C292.116 225.624 291.836 225.347 291.484 225.144C291.137 224.936 290.75 224.832 290.324 224.832C289.897 224.832 289.508 224.936 289.156 225.144C288.809 225.347 288.532 225.624 288.324 225.976C288.116 226.323 288.012 226.709 288.012 227.136V231.328C288.012 231.76 288.116 232.152 288.324 232.504C288.532 232.851 288.809 233.128 289.156 233.336C289.508 233.539 289.897 233.64 290.324 233.64ZM299.616 230.624V229.28H304.416V230.624H299.616ZM309.378 234.992L309.386 233.504L314.402 229.008C314.807 228.651 315.082 228.309 315.226 227.984C315.375 227.659 315.45 227.333 315.45 227.008C315.45 226.597 315.359 226.229 315.178 225.904C314.997 225.573 314.746 225.312 314.426 225.12C314.106 224.928 313.738 224.832 313.322 224.832C312.895 224.832 312.514 224.933 312.178 225.136C311.847 225.333 311.589 225.597 311.402 225.928C311.215 226.259 311.125 226.616 311.13 227H309.418C309.418 226.253 309.586 225.6 309.922 225.04C310.263 224.475 310.73 224.035 311.322 223.72C311.914 223.4 312.591 223.24 313.354 223.24C314.079 223.24 314.73 223.405 315.306 223.736C315.882 224.061 316.335 224.509 316.666 225.08C317.002 225.651 317.17 226.301 317.17 227.032C317.17 227.56 317.101 228.008 316.962 228.376C316.823 228.744 316.615 229.085 316.338 229.4C316.061 229.715 315.714 230.056 315.298 230.424L311.426 233.88L311.242 233.4H317.17V234.992H309.378ZM321.097 235V225.32L318.929 226.64V224.776L321.097 223.48H322.801V235H321.097ZM326.479 233.88V232.112H328.247V233.88H326.479ZM326.487 229.248V227.48H328.255V229.248H326.487ZM335.105 235.24C334.321 235.24 333.627 235.069 333.025 234.728C332.422 234.381 331.947 233.907 331.601 233.304C331.259 232.701 331.089 232.008 331.089 231.224V227.256C331.089 226.472 331.259 225.779 331.601 225.176C331.947 224.573 332.422 224.101 333.025 223.76C333.627 223.413 334.321 223.24 335.105 223.24C335.889 223.24 336.582 223.413 337.185 223.76C337.787 224.101 338.259 224.573 338.601 225.176C338.947 225.779 339.121 226.472 339.121 227.256V231.224C339.121 232.008 338.947 232.701 338.601 233.304C338.259 233.907 337.787 234.381 337.185 234.728C336.582 235.069 335.889 235.24 335.105 235.24ZM335.105 233.64C335.531 233.64 335.918 233.539 336.265 233.336C336.617 233.128 336.897 232.851 337.105 232.504C337.313 232.152 337.417 231.76 337.417 231.328V227.136C337.417 226.709 337.313 226.323 337.105 225.976C336.897 225.624 336.617 225.347 336.265 225.144C335.918 224.936 335.531 224.832 335.105 224.832C334.678 224.832 334.289 224.936 333.937 225.144C333.59 225.347 333.313 225.624 333.105 225.976C332.897 226.323 332.793 226.709 332.793 227.136V231.328C332.793 231.76 332.897 232.152 333.105 232.504C333.313 232.851 333.59 233.128 333.937 233.336C334.289 233.539 334.678 233.64 335.105 233.64ZM345.37 235.24C344.586 235.24 343.893 235.069 343.29 234.728C342.688 234.381 342.213 233.907 341.866 233.304C341.525 232.701 341.354 232.008 341.354 231.224V227.256C341.354 226.472 341.525 225.779 341.866 225.176C342.213 224.573 342.688 224.101 343.29 223.76C343.893 223.413 344.586 223.24 345.37 223.24C346.154 223.24 346.848 223.413 347.45 223.76C348.053 224.101 348.525 224.573 348.866 225.176C349.213 225.779 349.386 226.472 349.386 227.256V231.224C349.386 232.008 349.213 232.701 348.866 233.304C348.525 233.907 348.053 234.381 347.45 234.728C346.848 235.069 346.154 235.24 345.37 235.24ZM345.37 233.64C345.797 233.64 346.184 233.539 346.53 233.336C346.882 233.128 347.162 232.851 347.37 232.504C347.578 232.152 347.682 231.76 347.682 231.328V227.136C347.682 226.709 347.578 226.323 347.37 225.976C347.162 225.624 346.882 225.347 346.53 225.144C346.184 224.936 345.797 224.832 345.37 224.832C344.944 224.832 344.554 224.936 344.202 225.144C343.856 225.347 343.578 225.624 343.37 225.976C343.162 226.323 343.058 226.709 343.058 227.136V231.328C343.058 231.76 343.162 232.152 343.37 232.504C343.578 232.851 343.856 233.128 344.202 233.336C344.554 233.539 344.944 233.64 345.37 233.64Z" fill="#696969"/>
<path d="M121.12 144V132.48H122.792V137.856L127.616 132.48H129.696L124.6 138.104L130.072 144H127.928L122.792 138.496V144H121.12ZM138.478 135.36V144H136.87V137.992L132.55 144H131.19V135.36H132.798V141.248L137.126 135.36H138.478ZM142.946 144V136.864H139.994V135.36H147.57V136.864H144.618V144H142.946ZM151.279 144.24C150.639 144.24 150.103 144.123 149.671 143.888C149.239 143.648 148.911 143.333 148.687 142.944C148.468 142.549 148.359 142.117 148.359 141.648C148.359 141.211 148.436 140.827 148.591 140.496C148.745 140.165 148.975 139.885 149.279 139.656C149.583 139.421 149.956 139.232 150.399 139.088C150.783 138.976 151.217 138.877 151.703 138.792C152.188 138.707 152.697 138.627 153.231 138.552C153.769 138.477 154.303 138.403 154.831 138.328L154.223 138.664C154.233 137.987 154.089 137.485 153.791 137.16C153.497 136.829 152.991 136.664 152.271 136.664C151.817 136.664 151.401 136.771 151.023 136.984C150.644 137.192 150.38 137.539 150.231 138.024L148.671 137.544C148.884 136.803 149.289 136.213 149.887 135.776C150.489 135.339 151.289 135.12 152.287 135.12C153.06 135.12 153.732 135.253 154.303 135.52C154.879 135.781 155.3 136.197 155.567 136.768C155.705 137.051 155.791 137.349 155.823 137.664C155.855 137.979 155.871 138.317 155.871 138.68V144H154.391V142.024L154.679 142.28C154.321 142.941 153.865 143.435 153.311 143.76C152.761 144.08 152.084 144.24 151.279 144.24ZM151.575 142.872C152.049 142.872 152.457 142.789 152.799 142.624C153.14 142.453 153.415 142.237 153.623 141.976C153.831 141.715 153.967 141.443 154.031 141.16C154.121 140.904 154.172 140.616 154.183 140.296C154.199 139.976 154.207 139.72 154.207 139.528L154.751 139.728C154.223 139.808 153.743 139.88 153.311 139.944C152.879 140.008 152.487 140.072 152.135 140.136C151.788 140.195 151.479 140.267 151.207 140.352C150.977 140.432 150.772 140.528 150.591 140.64C150.415 140.752 150.273 140.888 150.167 141.048C150.065 141.208 150.015 141.403 150.015 141.632C150.015 141.856 150.071 142.064 150.183 142.256C150.295 142.443 150.465 142.592 150.695 142.704C150.924 142.816 151.217 142.872 151.575 142.872ZM161.804 134.368C161.383 134.368 160.996 134.264 160.644 134.056C160.297 133.848 160.02 133.571 159.812 133.224C159.604 132.877 159.5 132.491 159.5 132.064H160.828C160.828 132.331 160.924 132.56 161.116 132.752C161.308 132.944 161.537 133.04 161.804 133.04C162.076 133.04 162.305 132.944 162.492 132.752C162.684 132.56 162.78 132.331 162.78 132.064H164.108C164.108 132.491 164.004 132.877 163.796 133.224C163.588 133.571 163.308 133.848 162.956 134.056C162.609 134.264 162.225 134.368 161.804 134.368ZM165.228 135.36V144H163.62V137.992L159.3 144H157.94V135.36H159.548V141.248L163.876 135.36H165.228ZM123.92 163.864V160.904H120.96V159.56H123.92V156.616H125.264V159.56H128.216V160.904H125.264V163.864H123.92ZM133.98 166.24C133.228 166.24 132.561 166.091 131.98 165.792C131.404 165.488 130.951 165.067 130.62 164.528C130.295 163.989 130.132 163.365 130.132 162.656C130.132 161.995 130.287 161.389 130.596 160.84C130.905 160.291 131.367 159.859 131.98 159.544L131.948 160.12C131.457 159.816 131.079 159.437 130.812 158.984C130.551 158.525 130.42 158.013 130.42 157.448C130.42 156.792 130.572 156.224 130.876 155.744C131.18 155.264 131.599 154.893 132.132 154.632C132.671 154.371 133.287 154.24 133.98 154.24C134.673 154.24 135.287 154.371 135.82 154.632C136.353 154.893 136.772 155.264 137.076 155.744C137.38 156.224 137.532 156.792 137.532 157.448C137.532 158.013 137.407 158.523 137.156 158.976C136.905 159.429 136.521 159.811 136.004 160.12L135.98 159.56C136.588 159.859 137.049 160.285 137.364 160.84C137.679 161.389 137.836 161.995 137.836 162.656C137.836 163.365 137.671 163.989 137.34 164.528C137.009 165.067 136.553 165.488 135.972 165.792C135.391 166.091 134.727 166.24 133.98 166.24ZM133.98 164.648C134.599 164.648 135.1 164.48 135.484 164.144C135.868 163.803 136.06 163.307 136.06 162.656C136.06 162.005 135.868 161.509 135.484 161.168C135.105 160.821 134.604 160.648 133.98 160.648C133.356 160.648 132.852 160.821 132.468 161.168C132.089 161.509 131.9 162.005 131.9 162.656C131.9 163.307 132.092 163.803 132.476 164.144C132.86 164.48 133.361 164.648 133.98 164.648ZM133.98 159.048C134.508 159.048 134.935 158.917 135.26 158.656C135.591 158.389 135.756 157.987 135.756 157.448C135.756 156.909 135.591 156.507 135.26 156.24C134.935 155.968 134.508 155.832 133.98 155.832C133.452 155.832 133.023 155.968 132.692 156.24C132.361 156.507 132.196 156.909 132.196 157.448C132.196 157.987 132.361 158.389 132.692 158.656C133.023 158.917 133.452 159.048 133.98 159.048ZM143.877 166.24C143.13 166.24 142.458 166.064 141.861 165.712C141.264 165.355 140.789 164.867 140.437 164.248C140.09 163.629 139.917 162.925 139.917 162.136V158.464C139.917 157.627 140.09 156.891 140.437 156.256C140.789 155.621 141.274 155.128 141.893 154.776C142.517 154.424 143.234 154.248 144.045 154.248C144.653 154.248 145.224 154.363 145.757 154.592C146.29 154.821 146.752 155.163 147.141 155.616L145.917 156.76C145.698 156.477 145.424 156.253 145.093 156.088C144.768 155.917 144.418 155.832 144.045 155.832C143.565 155.832 143.144 155.947 142.781 156.176C142.418 156.4 142.133 156.696 141.925 157.064C141.722 157.432 141.621 157.827 141.621 158.248V160.36L141.293 159.992C141.624 159.56 142.034 159.219 142.525 158.968C143.016 158.717 143.541 158.592 144.101 158.592C144.816 158.592 145.453 158.76 146.013 159.096C146.578 159.427 147.021 159.877 147.341 160.448C147.666 161.019 147.829 161.661 147.829 162.376C147.829 163.096 147.648 163.749 147.285 164.336C146.928 164.917 146.448 165.381 145.845 165.728C145.248 166.069 144.592 166.24 143.877 166.24ZM143.877 164.632C144.293 164.632 144.672 164.531 145.013 164.328C145.354 164.125 145.626 163.853 145.829 163.512C146.032 163.171 146.133 162.792 146.133 162.376C146.133 161.96 146.032 161.581 145.829 161.24C145.632 160.899 145.362 160.627 145.021 160.424C144.68 160.221 144.301 160.12 143.885 160.12C143.469 160.12 143.088 160.221 142.741 160.424C142.4 160.627 142.128 160.899 141.925 161.24C141.722 161.581 141.621 161.96 141.621 162.376C141.621 162.787 141.722 163.163 141.925 163.504C142.128 163.845 142.4 164.12 142.741 164.328C143.082 164.531 143.461 164.632 143.877 164.632ZM155.066 166V156.32L152.898 157.64V155.776L155.066 154.48H156.77V166H155.066ZM160.408 166L164.456 156.072H159.328V154.48H166.256V156.072L162.216 166H160.408ZM167.863 165.992L167.871 164.504L172.887 160.008C173.292 159.651 173.567 159.309 173.711 158.984C173.86 158.659 173.935 158.333 173.935 158.008C173.935 157.597 173.844 157.229 173.663 156.904C173.481 156.573 173.231 156.312 172.911 156.12C172.591 155.928 172.223 155.832 171.807 155.832C171.38 155.832 170.999 155.933 170.663 156.136C170.332 156.333 170.073 156.597 169.887 156.928C169.7 157.259 169.609 157.616 169.615 158H167.903C167.903 157.253 168.071 156.6 168.407 156.04C168.748 155.475 169.215 155.035 169.807 154.72C170.399 154.4 171.076 154.24 171.839 154.24C172.564 154.24 173.215 154.405 173.791 154.736C174.367 155.061 174.82 155.509 175.151 156.08C175.487 156.651 175.655 157.301 175.655 158.032C175.655 158.56 175.585 159.008 175.447 159.376C175.308 159.744 175.1 160.085 174.823 160.4C174.545 160.715 174.199 161.056 173.783 161.424L169.911 164.88L169.727 164.4H175.655V165.992H167.863ZM184.736 166.24C183.99 166.24 183.318 166.064 182.72 165.712C182.123 165.355 181.648 164.867 181.296 164.248C180.95 163.629 180.776 162.925 180.776 162.136V158.464C180.776 157.627 180.95 156.891 181.296 156.256C181.648 155.621 182.134 155.128 182.752 154.776C183.376 154.424 184.094 154.248 184.904 154.248C185.512 154.248 186.083 154.363 186.616 154.592C187.15 154.821 187.611 155.163 188 155.616L186.776 156.76C186.558 156.477 186.283 156.253 185.952 156.088C185.627 155.917 185.278 155.832 184.904 155.832C184.424 155.832 184.003 155.947 183.64 156.176C183.278 156.4 182.992 156.696 182.784 157.064C182.582 157.432 182.48 157.827 182.48 158.248V160.36L182.152 159.992C182.483 159.56 182.894 159.219 183.384 158.968C183.875 158.717 184.4 158.592 184.96 158.592C185.675 158.592 186.312 158.76 186.872 159.096C187.438 159.427 187.88 159.877 188.2 160.448C188.526 161.019 188.688 161.661 188.688 162.376C188.688 163.096 188.507 163.749 188.144 164.336C187.787 164.917 187.307 165.381 186.704 165.728C186.107 166.069 185.451 166.24 184.736 166.24ZM184.736 164.632C185.152 164.632 185.531 164.531 185.872 164.328C186.214 164.125 186.486 163.853 186.688 163.512C186.891 163.171 186.992 162.792 186.992 162.376C186.992 161.96 186.891 161.581 186.688 161.24C186.491 160.899 186.222 160.627 185.88 160.424C185.539 160.221 185.16 160.12 184.744 160.12C184.328 160.12 183.947 160.221 183.6 160.424C183.259 160.627 182.987 160.899 182.784 161.24C182.582 161.581 182.48 161.96 182.48 162.376C182.48 162.787 182.582 163.163 182.784 163.504C182.987 163.845 183.259 164.12 183.6 164.328C183.942 164.531 184.32 164.632 184.736 164.632ZM195.594 166V163.992H190.394V162.408L194.138 154.48H196.05L192.306 162.408H195.594V159.288H197.29V162.408H198.434V163.992H197.29V166H195.594ZM202.362 166V156.32L200.194 157.64V155.776L202.362 154.48H204.066V166H202.362ZM211.984 166V163.992H206.784V162.408L210.528 154.48H212.44L208.696 162.408H211.984V159.288H213.68V162.408H214.824V163.992H213.68V166H211.984ZM224.828 166V163.992H219.628V162.408L223.372 154.48H225.284L221.54 162.408H224.828V159.288H226.524V162.408H227.668V163.992H226.524V166H224.828ZM234.391 166V163.992H229.191V162.408L232.935 154.48H234.847L231.103 162.408H234.391V159.288H236.087V162.408H237.231V163.992H236.087V166H234.391ZM242.839 166.24C242.087 166.24 241.421 166.091 240.839 165.792C240.263 165.488 239.81 165.067 239.479 164.528C239.154 163.989 238.991 163.365 238.991 162.656C238.991 161.995 239.146 161.389 239.455 160.84C239.765 160.291 240.226 159.859 240.839 159.544L240.807 160.12C240.317 159.816 239.938 159.437 239.671 158.984C239.41 158.525 239.279 158.013 239.279 157.448C239.279 156.792 239.431 156.224 239.735 155.744C240.039 155.264 240.458 154.893 240.991 154.632C241.53 154.371 242.146 154.24 242.839 154.24C243.533 154.24 244.146 154.371 244.679 154.632C245.213 154.893 245.631 155.264 245.935 155.744C246.239 156.224 246.391 156.792 246.391 157.448C246.391 158.013 246.266 158.523 246.015 158.976C245.765 159.429 245.381 159.811 244.863 160.12L244.839 159.56C245.447 159.859 245.909 160.285 246.223 160.84C246.538 161.389 246.695 161.995 246.695 162.656C246.695 163.365 246.53 163.989 246.199 164.528C245.869 165.067 245.413 165.488 244.831 165.792C244.25 166.091 243.586 166.24 242.839 166.24ZM242.839 164.648C243.458 164.648 243.959 164.48 244.343 164.144C244.727 163.803 244.919 163.307 244.919 162.656C244.919 162.005 244.727 161.509 244.343 161.168C243.965 160.821 243.463 160.648 242.839 160.648C242.215 160.648 241.711 160.821 241.327 161.168C240.949 161.509 240.759 162.005 240.759 162.656C240.759 163.307 240.951 163.803 241.335 164.144C241.719 164.48 242.221 164.648 242.839 164.648ZM242.839 159.048C243.367 159.048 243.794 158.917 244.119 158.656C244.45 158.389 244.615 157.987 244.615 157.448C244.615 156.909 244.45 156.507 244.119 156.24C243.794 155.968 243.367 155.832 242.839 155.832C242.311 155.832 241.882 155.968 241.551 156.24C241.221 156.507 241.055 156.909 241.055 157.448C241.055 157.987 241.221 158.389 241.551 158.656C241.882 158.917 242.311 159.048 242.839 159.048ZM252.52 154.248C253.262 154.248 253.931 154.427 254.528 154.784C255.126 155.136 255.6 155.621 255.952 156.24C256.304 156.859 256.48 157.565 256.48 158.36V162.024C256.48 162.867 256.304 163.605 255.952 164.24C255.606 164.869 255.12 165.36 254.496 165.712C253.878 166.064 253.163 166.24 252.352 166.24C251.744 166.24 251.174 166.125 250.64 165.896C250.107 165.667 249.643 165.325 249.248 164.872L250.48 163.728C250.699 164.011 250.974 164.237 251.304 164.408C251.635 164.579 251.984 164.664 252.352 164.664C252.827 164.664 253.246 164.549 253.608 164.32C253.976 164.091 254.262 163.792 254.464 163.424C254.667 163.056 254.768 162.661 254.768 162.24V160.128L255.104 160.496C254.774 160.928 254.363 161.269 253.872 161.52C253.382 161.771 252.856 161.896 252.296 161.896C251.576 161.896 250.936 161.731 250.376 161.4C249.816 161.069 249.374 160.619 249.048 160.048C248.723 159.477 248.56 158.832 248.56 158.112C248.56 157.392 248.742 156.741 249.104 156.16C249.467 155.579 249.947 155.115 250.544 154.768C251.142 154.421 251.8 154.248 252.52 154.248ZM252.52 155.864C252.104 155.864 251.723 155.965 251.376 156.168C251.035 156.365 250.763 156.635 250.56 156.976C250.358 157.317 250.256 157.696 250.256 158.112C250.256 158.528 250.358 158.909 250.56 159.256C250.763 159.597 251.035 159.869 251.376 160.072C251.718 160.275 252.096 160.376 252.512 160.376C252.928 160.376 253.307 160.275 253.648 160.072C253.99 159.869 254.262 159.597 254.464 159.256C254.667 158.909 254.768 158.528 254.768 158.112C254.768 157.701 254.667 157.325 254.464 156.984C254.267 156.643 253.998 156.371 253.656 156.168C253.315 155.965 252.936 155.864 252.52 155.864Z" fill="#696969"/>
<path d="M82.5001 154.254C77.5105 159.504 64.7834 146.892 69.7918 141.621C72.8501 138.402 69.3959 134.725 67.4834 132.019C63.8939 126.946 56.0168 133.95 56.2543 138.406C57.0105 152.46 72.2126 169.115 86.9334 167.66C91.5376 167.206 96.8293 158.89 91.548 155.85C88.9064 154.329 85.2793 151.329 82.5001 154.252" stroke="#2563EB" stroke-width="3" stroke-linecap="round" stroke-linejoin="round"/>
<rect x="0.5" y="0.5" width="649" height="411" rx="14.5" fill="white" stroke="#EBEBEB"/>
<path d="M361.803 2C331.632 23.6715 292.496 71.6585 377.32 90.2341C483.351 113.454 429.042 152.346 420.422 168.02C411.802 183.693 423.87 217.941 506.626 227.81C589.381 237.678 586.795 277.732 571.279 302.112C555.762 326.493 608.346 357.259 648 359" stroke="#696969" stroke-opacity="0.17" stroke-width="3" stroke-linecap="round" stroke-dasharray="12 12"/>
</svg>
