<svg width="50" height="50" viewBox="0 0 50 50" fill="none" xmlns="http://www.w3.org/2000/svg">
<path d="M6.25 20.8333C6.25 12.977 6.25 9.04788 8.69167 6.60829C11.1333 4.16871 15.0604 4.16663 22.9167 4.16663H27.0833C34.9396 4.16663 38.8687 4.16663 41.3083 6.60829C43.7479 9.04996 43.75 12.977 43.75 20.8333V29.1666C43.75 37.0229 43.75 40.952 41.3083 43.3916C38.8667 45.8312 34.9396 45.8333 27.0833 45.8333H22.9167C15.0604 45.8333 11.1312 45.8333 8.69167 43.3916C6.25208 40.95 6.25 37.0229 6.25 29.1666V20.8333Z" stroke="#2563EB" stroke-width="3"/>
<path d="M16.668 20.8335H33.3346M16.668 29.1668H27.0846" stroke="#2563EB" stroke-width="3" stroke-linecap="round"/>
</svg>
