<svg width="36" height="1724" viewBox="0 0 36 1724" fill="none" xmlns="http://www.w3.org/2000/svg">
<circle cx="18" cy="18" r="14" stroke="#2563EB" stroke-width="8"/>
<circle cx="18" cy="229" r="14" stroke="#2563EB" stroke-width="8"/>
<circle cx="18" cy="440" r="14" stroke="#2563EB" stroke-width="8"/>
<circle cx="18" cy="651" r="14" stroke="#2563EB" stroke-width="8"/>
<circle cx="18" cy="862" r="14" stroke="#2563EB" stroke-width="8"/>
<circle cx="18" cy="1073" r="14" stroke="#2563EB" stroke-width="8"/>
<circle cx="18" cy="1284" r="14" stroke="#2563EB" stroke-width="8"/>
<circle cx="18" cy="1495" r="14" stroke="#2563EB" stroke-width="8"/>
<circle cx="18" cy="1706" r="14" stroke="#2563EB" stroke-width="8"/>
<path d="M18 56L18 191" stroke="#2563EB" stroke-width="4" stroke-linecap="round" stroke-dasharray="10 10"/>
<path d="M18 478L18 613" stroke="#2563EB" stroke-width="4" stroke-linecap="round" stroke-dasharray="10 10"/>
<path d="M18 900L18 1035" stroke="#2563EB" stroke-width="4" stroke-linecap="round" stroke-dasharray="10 10"/>
<path d="M18 1322L18 1457" stroke="#2563EB" stroke-width="4" stroke-linecap="round" stroke-dasharray="10 10"/>
<path d="M18 267L18 402" stroke="#2563EB" stroke-width="4" stroke-linecap="round" stroke-dasharray="10 10"/>
<path d="M18 689L18 824" stroke="#2563EB" stroke-width="4" stroke-linecap="round" stroke-dasharray="10 10"/>
<path d="M18 1111L18 1246" stroke="#2563EB" stroke-width="4" stroke-linecap="round" stroke-dasharray="10 10"/>
<path d="M18 1533L18 1668" stroke="#2563EB" stroke-width="4" stroke-linecap="round" stroke-dasharray="10 10"/>
</svg>
