<svg width="46" height="46" viewBox="0 0 46 46" fill="none" xmlns="http://www.w3.org/2000/svg">
<path d="M43.8327 14.0416C43.8327 12.7916 42.9993 11.5416 42.166 10.9166L29.041 2.79163C28.5013 2.4848 27.891 2.32349 27.2702 2.32349C26.6493 2.32349 26.0391 2.4848 25.4993 2.79163L4.04102 15.2916C2.99935 15.7083 2.16602 16.9583 2.16602 18.2083V31.9583C2.16602 33 2.99935 34.4583 3.83268 35.0833L16.9577 43.2083C17.4974 43.5151 18.1076 43.6764 18.7285 43.6764C19.3494 43.6764 19.9596 43.5151 20.4993 43.2083L41.9577 30.7083C42.9993 30.0833 43.8327 28.625 43.8327 27.5833V14.0416Z" stroke="#2563EB" stroke-width="3" stroke-linecap="round" stroke-linejoin="round"/>
<path d="M18.8333 43.6251V27.1667M18.8333 27.1667L2.375 16.9584M18.8333 27.1667L43.625 12.7917M27.1667 39.2501V22.3751M35.5 34.4584V17.5834" stroke="#2563EB" stroke-width="3" stroke-linecap="round" stroke-linejoin="round"/>
</svg>
