<svg width="50" height="50" viewBox="0 0 50 50" fill="none" xmlns="http://www.w3.org/2000/svg">
<path d="M9.87804 14.5358L9.8707 14.5318L9.86333 14.5279C9.52252 14.3494 9.27148 13.9703 9.27148 13.4609C9.27148 13.0057 9.51743 12.5928 9.8924 12.3782L21.6233 6.05522C21.6241 6.05475 21.625 6.05428 21.6259 6.05382C22.4334 5.62422 23.3811 5.62431 24.1885 6.05409C24.1893 6.05447 24.19 6.05484 24.1907 6.05522L35.9427 12.3784C36.3174 12.5931 36.5632 13.0058 36.5632 13.4609C36.5632 13.9524 36.3052 14.3487 35.9582 14.535L35.9567 14.5358L24.1858 20.869L24.1789 20.8727L24.1719 20.8766C23.8053 21.0788 23.3491 21.1901 22.9174 21.1901C22.498 21.1901 22.0537 21.0844 21.6463 20.8676C21.6456 20.8672 21.6448 20.8668 21.6441 20.8664L9.87804 14.5358Z" stroke="#2563EB" stroke-width="3"/>
<path d="M7.37999 20.2739L7.38698 20.2774L7.394 20.2809L18.3233 25.7352C19.4073 26.2946 20.0883 27.3874 20.1055 28.615V38.9388C20.1055 39.3424 19.908 39.7133 19.5606 39.9447C19.33 40.0703 19.0966 40.1263 18.918 40.1263C18.7486 40.1263 18.5604 40.083 18.3805 39.993L18.3794 39.9925L7.4499 34.5382C7.4487 34.5376 7.44751 34.537 7.44632 34.5364C6.3401 33.9745 5.66797 32.8835 5.66797 31.668V21.3347C5.66797 20.9278 5.86857 20.5543 6.22106 20.3232C6.61778 20.097 7.02286 20.0909 7.37999 20.2739Z" stroke="#2563EB" stroke-width="3"/>
<path d="M41.6667 21.3347V26.4597C40.6667 26.168 39.6042 26.043 38.5417 26.043C35.7083 26.043 32.9375 27.0222 30.75 28.7722C27.75 31.1263 26.0417 34.6888 26.0417 38.543C26.0417 39.5638 26.1667 40.5847 26.4375 41.5638C26.125 41.5222 25.8125 41.3972 25.5208 41.2097C24.7292 40.7305 24.25 39.8763 24.25 38.9388V28.6055C24.25 26.8138 25.25 25.2097 26.8333 24.3972L37.7708 18.9388C38.625 18.5013 39.5833 18.5638 40.3958 19.043C41.1875 19.543 41.6667 20.3971 41.6667 21.3347Z" fill="#2563EB"/>
<path d="M45.1477 32.6453C45.2131 32.7107 45.2786 32.7867 45.3346 32.8629M45.1477 32.6453L45.3346 32.8629M45.1477 32.6453C45.1158 32.6134 45.093 32.5831 45.0813 32.567C45.0709 32.5526 45.0614 32.5385 45.0563 32.5309C43.4624 30.7667 41.1224 29.6667 38.543 29.6667C36.0575 29.6667 33.7893 30.6922 32.1716 32.3493C30.6148 33.9456 29.668 36.1336 29.668 38.5417C29.668 40.1963 30.1408 41.7742 30.9503 43.1169L30.9519 43.1195L30.9519 43.1195C31.3761 43.833 31.9133 44.4885 32.5238 45.0297C32.5964 45.0756 32.642 45.1212 32.6665 45.1456L32.6674 45.1465C32.6674 45.1465 32.6674 45.1465 32.6674 45.1465C32.7178 45.197 32.7672 45.2405 32.8281 45.2917H32.8751L32.9385 45.3552L33.0521 45.4506C34.5245 46.6874 36.4315 47.4167 38.543 47.4167C41.7757 47.4167 44.5953 45.6829 46.1341 43.1194C46.5894 42.3469 46.9447 41.497 47.1614 40.6105L47.1637 40.6013L47.1638 40.6013C47.3388 39.9401 47.418 39.2545 47.418 38.5417C47.418 36.4511 46.6886 34.522 45.4497 33.0275L45.3346 32.8887V32.8629M45.1477 32.6453L45.3346 32.8629M40.6055 42.0834V40.5626H42.043C43.1984 40.5626 44.1055 39.626 44.1055 38.5001C44.1055 37.3698 43.1733 36.4376 42.043 36.4376H40.6055V35.0834C40.6055 33.9531 39.6733 33.0209 38.543 33.0209C37.4127 33.0209 36.4805 33.9531 36.4805 35.0834V36.4376H35.043C33.9127 36.4376 32.9805 37.3698 32.9805 38.5001C32.9805 39.6304 33.9127 40.5626 35.043 40.5626H36.4805V42.0834C36.4805 43.2137 37.4127 44.1459 38.543 44.1459C39.6733 44.1459 40.6055 43.2137 40.6055 42.0834Z" fill="#2563EB" stroke="#2563EB"/>
</svg>
