<svg width="46" height="46" viewBox="0 0 46 46" fill="none" xmlns="http://www.w3.org/2000/svg">
<path d="M27.168 27.167L32.3763 32.3753M32.2367 36.5941C31.9356 36.3113 31.6943 35.9709 31.5273 35.5932C31.3603 35.2154 31.2708 34.8079 31.2643 34.3948C31.2578 33.9818 31.3344 33.5717 31.4895 33.1888C31.6445 32.806 31.875 32.4582 32.167 32.1661C32.4591 31.874 32.8069 31.6436 33.1898 31.4885C33.5727 31.3334 33.9828 31.2569 34.3958 31.2634C34.8088 31.2699 35.2163 31.3593 35.5941 31.5263C35.9719 31.6934 36.3123 31.9346 36.5951 32.2357L42.9326 38.5732C43.2337 38.856 43.4749 39.1964 43.642 39.5742C43.809 39.952 43.8984 40.3595 43.9049 40.7725C43.9114 41.1855 43.8349 41.5956 43.6798 41.9785C43.5247 42.3614 43.2943 42.7092 43.0022 43.0013C42.7101 43.2933 42.3623 43.5238 41.9795 43.6788C41.5966 43.8339 41.1865 43.9105 40.7735 43.904C40.3604 43.8975 39.9529 43.808 39.5751 43.641C39.1974 43.474 38.857 43.2327 38.5742 42.9316L32.2367 36.5941ZM31.3346 16.7503C31.3346 12.8826 29.7982 9.17326 27.0633 6.43835C24.3284 3.70345 20.619 2.16699 16.7513 2.16699C12.8836 2.16699 9.17423 3.70345 6.43933 6.43835C3.70442 9.17326 2.16797 12.8826 2.16797 16.7503C2.16797 20.6181 3.70442 24.3274 6.43933 27.0623C9.17423 29.7972 12.8836 31.3337 16.7513 31.3337C20.619 31.3337 24.3284 29.7972 27.0633 27.0623C29.7982 24.3274 31.3346 20.6181 31.3346 16.7503Z" stroke="#2563EB" stroke-width="3" stroke-linecap="round" stroke-linejoin="round"/>
</svg>
