<svg width="122" height="25" viewBox="0 0 122 25" fill="none" xmlns="http://www.w3.org/2000/svg">
<path d="M2 10.5C0.895431 10.5 9.65645e-08 11.3954 0 12.5C-9.65645e-08 13.6046 0.89543 14.5 2 14.5L2 10.5ZM122 12.5L102 0.953003L102 24.047L122 12.5ZM7 14.5C8.10457 14.5 9 13.6046 9 12.5C9 11.3954 8.10457 10.5 7 10.5L7 14.5ZM17 10.5C15.8954 10.5 15 11.3954 15 12.5C15 13.6046 15.8954 14.5 17 14.5L17 10.5ZM27 14.5C28.1046 14.5 29 13.6046 29 12.5C29 11.3954 28.1046 10.5 27 10.5L27 14.5ZM37 10.5C35.8954 10.5 35 11.3954 35 12.5C35 13.6046 35.8954 14.5 37 14.5L37 10.5ZM47 14.5C48.1046 14.5 49 13.6046 49 12.5C49 11.3954 48.1046 10.5 47 10.5L47 14.5ZM57 10.5C55.8954 10.5 55 11.3954 55 12.5C55 13.6046 55.8954 14.5 57 14.5L57 10.5ZM67 14.5C68.1046 14.5 69 13.6046 69 12.5C69 11.3954 68.1046 10.5 67 10.5L67 14.5ZM77 10.5C75.8954 10.5 75 11.3954 75 12.5C75 13.6046 75.8954 14.5 77 14.5L77 10.5ZM87 14.5C88.1046 14.5 89 13.6046 89 12.5C89 11.3954 88.1046 10.5 87 10.5L87 14.5ZM97 10.5C95.8954 10.5 95 11.3954 95 12.5C95 13.6046 95.8954 14.5 97 14.5L97 10.5ZM107 14.5C108.105 14.5 109 13.6046 109 12.5C109 11.3954 108.105 10.5 107 10.5L107 14.5ZM117 10.5C115.895 10.5 115 11.3954 115 12.5C115 13.6046 115.895 14.5 117 14.5L117 10.5ZM2 14.5L7 14.5L7 10.5L2 10.5L2 14.5ZM17 14.5L27 14.5L27 10.5L17 10.5L17 14.5ZM37 14.5L47 14.5L47 10.5L37 10.5L37 14.5ZM57 14.5L67 14.5L67 10.5L57 10.5L57 14.5ZM77 14.5L87 14.5L87 10.5L77 10.5L77 14.5ZM97 14.5L107 14.5L107 10.5L97 10.5L97 14.5Z" fill="#2563EB"/>
</svg>
