<svg width="50" height="50" viewBox="0 0 50 50" fill="none" xmlns="http://www.w3.org/2000/svg">
<path d="M39.582 43.2291C40.1346 43.2291 40.6645 43.0096 41.0552 42.6189C41.4459 42.2282 41.6654 41.6983 41.6654 41.1458V38.5499C41.6737 32.7041 33.3862 28.1249 24.9987 28.1249C16.6112 28.1249 8.33203 32.7041 8.33203 38.5499V41.1458C8.33203 41.6983 8.55153 42.2282 8.94223 42.6189C9.33293 43.0096 9.86283 43.2291 10.4154 43.2291H39.582ZM32.507 14.2791C32.507 15.2651 32.3128 16.2414 31.9355 17.1524C31.5582 18.0634 31.0051 18.8911 30.3079 19.5883C29.6107 20.2855 28.783 20.8386 27.872 21.2159C26.9611 21.5932 25.9847 21.7874 24.9987 21.7874C24.0127 21.7874 23.0363 21.5932 22.1254 21.2159C21.2144 20.8386 20.3867 20.2855 19.6895 19.5883C18.9923 18.8911 18.4392 18.0634 18.0619 17.1524C17.6846 16.2414 17.4904 15.2651 17.4904 14.2791C17.4904 12.2878 18.2814 10.378 19.6895 8.96989C21.0976 7.56181 23.0074 6.77075 24.9987 6.77075C26.99 6.77075 28.8998 7.56181 30.3079 8.96989C31.716 10.378 32.507 12.2878 32.507 14.2791Z" stroke="#2563EB" stroke-width="3" stroke-linecap="round" stroke-linejoin="round"/>
</svg>
