<svg id="图层_1" data-name="图层 1" xmlns="http://www.w3.org/2000/svg" viewBox="0 0 850.39 850.39"><defs><style>.cls-1{fill:#036eb8;}</style></defs><title>Legacy Express售后</title><path class="cls-1" d="M616.43,273.58v-5.51a9.4,9.4,0,0,0-9.4-9.4H294.44a9.23,9.23,0,0,0-1,.12,9.1,9.1,0,0,0-1.16.15,9.25,9.25,0,0,0-1.23.43,6.18,6.18,0,0,0-2.43,1.38c-.18.14-.38.24-.55.39a9.39,9.39,0,0,0-1.56,1.84l0,.05,0,0-51.08,81a9.39,9.39,0,0,0-.61,8.9L340.72,586.21a9.4,9.4,0,0,0,8.56,5.51H492.65a9.4,9.4,0,0,0,6.89-3L561,522.38a56,56,0,0,0,55.41-55.88v-6.08A9.4,9.4,0,0,0,607,451H473.54l-12.77-28.14h99.76A56,56,0,0,0,616.43,367a9.4,9.4,0,0,0-9.4-9.4H431.11l-12.76-28.08H560.53A56,56,0,0,0,616.43,273.58ZM395.18,324l21.31,46.88a9.4,9.4,0,0,0,8.56,5.51H596.42a37.17,37.17,0,0,1-35.9,27.7H446.18a9.4,9.4,0,0,0-8.56,13.29l21.31,46.94a9.4,9.4,0,0,0,8.56,5.51h130a37.15,37.15,0,0,1-37,33.78H411.74L309,277.47H597.43a37.16,37.16,0,0,1-36.9,33.22H403.74A9.4,9.4,0,0,0,395.18,324Z"/></svg>