<svg width="926" height="453" viewBox="0 0 926 453" fill="none" xmlns="http://www.w3.org/2000/svg">
<path d="M17.9758 64.3167C16.8654 39.2431 38.3 18.2369 63.3318 20.0609C132.87 25.1282 274.83 33.2473 470.561 33.2473C667.779 33.2473 810.406 25.0043 879.363 19.9459C903.886 18.147 924.772 38.2856 923.745 62.8528C922.018 104.209 919.916 168.078 919.916 234.068C919.916 300.812 922.066 365.384 923.805 406.69C924.818 430.766 904.806 450.669 880.741 449.424C811.863 445.864 667.596 439.935 470.561 439.935C274.934 439.935 131.324 445.779 61.87 449.348C37.2991 450.61 16.8075 429.839 17.9116 405.261C19.509 369.698 21.2052 313.286 21.2052 234.068C21.2052 155.912 19.5542 99.9541 17.9758 64.3167Z" fill="#2563EB"/>
<path d="M2.82934 49.1443C1.71887 24.0708 23.1535 3.06452 48.1853 4.88858C117.724 9.95584 259.684 18.075 455.414 18.075C652.633 18.075 795.26 9.83193 864.217 4.77355C888.739 2.97466 909.625 23.1132 908.599 47.6804C906.871 89.0366 904.77 152.905 904.77 218.896C904.77 285.639 906.92 350.212 908.658 391.518C909.671 415.594 889.659 435.496 865.594 434.252C796.717 430.691 652.45 424.762 455.414 424.762C259.788 424.762 116.178 430.607 46.7235 434.175C22.1527 435.438 1.66101 414.667 2.76507 390.088C4.36251 354.526 6.05873 298.114 6.05873 218.896C6.05873 140.74 4.40767 84.7817 2.82934 49.1443Z" fill="url(#paint0_radial_1418_413)"/>
<defs>
<radialGradient id="paint0_radial_1418_413" cx="0" cy="0" r="1" gradientUnits="userSpaceOnUse" gradientTransform="translate(455.414 562.072) scale(503.194 639.315)">
<stop stop-color="#2563EB"/>
<stop offset="0.674" stop-color="#00287F"/>
<stop offset="1" stop-color="#09004B"/>
</radialGradient>
</defs>
</svg>
