<svg width="50" height="50" viewBox="0 0 50 50" fill="none" xmlns="http://www.w3.org/2000/svg">
<path d="M29.168 29.167L34.3763 34.3753M34.2367 38.5941C33.9356 38.3113 33.6943 37.9709 33.5273 37.5932C33.3603 37.2154 33.2708 36.8079 33.2643 36.3948C33.2578 35.9818 33.3344 35.5717 33.4895 35.1888C33.6445 34.806 33.875 34.4582 34.167 34.1661C34.4591 33.874 34.8069 33.6436 35.1898 33.4885C35.5727 33.3334 35.9828 33.2569 36.3958 33.2634C36.8088 33.2699 37.2163 33.3593 37.5941 33.5263C37.9719 33.6934 38.3123 33.9346 38.5951 34.2357L44.9326 40.5732C45.2337 40.856 45.4749 41.1964 45.642 41.5742C45.809 41.952 45.8984 42.3595 45.9049 42.7725C45.9114 43.1855 45.8349 43.5956 45.6798 43.9785C45.5247 44.3614 45.2943 44.7092 45.0022 45.0013C44.7101 45.2933 44.3623 45.5238 43.9795 45.6788C43.5966 45.8339 43.1865 45.9105 42.7735 45.904C42.3604 45.8975 41.9529 45.808 41.5751 45.641C41.1974 45.474 40.857 45.2327 40.5742 44.9316L34.2367 38.5941ZM33.3346 18.7503C33.3346 14.8826 31.7982 11.1733 29.0633 8.43835C26.3284 5.70345 22.619 4.16699 18.7513 4.16699C14.8836 4.16699 11.1742 5.70345 8.43933 8.43835C5.70442 11.1733 4.16797 14.8826 4.16797 18.7503C4.16797 22.6181 5.70442 26.3274 8.43933 29.0623C11.1742 31.7972 14.8836 33.3337 18.7513 33.3337C22.619 33.3337 26.3284 31.7972 29.0633 29.0623C31.7982 26.3274 33.3346 22.6181 33.3346 18.7503Z" stroke="#2563EB" stroke-width="3" stroke-linecap="round" stroke-linejoin="round"/>
</svg>
