<svg width="48" height="54" viewBox="0 0 48 54" fill="none" xmlns="http://www.w3.org/2000/svg">
<path d="M1.5 22C1.5 12.5725 1.5 7.8575 4.43 4.93C7.36 2.0025 12.0725 2 21.5 2H26.5C35.9275 2 40.6425 2 43.57 4.93C46.4975 7.86 46.5 12.5725 46.5 22V32C46.5 41.4275 46.5 46.1425 43.57 49.07C40.64 51.9975 35.9275 52 26.5 52H21.5C12.0725 52 7.3575 52 4.43 49.07C1.5025 46.14 1.5 41.4275 1.5 32V22Z" stroke="#2563EB" stroke-width="3"/>
<path d="M14.0005 22.0001H34.0005M14.0005 32.0001H26.5005" stroke="#2563EB" stroke-width="3" stroke-linecap="round"/>
</svg>
