<svg width="46" height="46" viewBox="0 0 46 46" fill="none" xmlns="http://www.w3.org/2000/svg">
<path d="M12.4161 10.3333V8.25C12.4161 5.30417 12.4161 3.83125 13.3328 2.91667C14.2453 2 15.7182 2 18.6661 2H26.9995C29.9453 2 31.4182 2 32.3328 2.91667C33.2495 3.82917 33.2495 5.30208 33.2495 8.25V10.3333C33.2495 13.2792 33.2495 14.7521 32.3328 15.6667C31.4203 16.5833 29.9474 16.5833 26.9995 16.5833H24.9161L18.6661 20.75V16.5833C15.7203 16.5833 14.2474 16.5833 13.3328 15.6667C12.4161 14.7542 12.4161 13.2812 12.4161 10.3333ZM5.31197 36.875C4.00156 37.7542 0.568224 39.5458 2.65989 41.7875C3.68072 42.8833 4.82031 43.6667 6.24947 43.6667H14.4161C15.8453 43.6667 16.9849 42.8833 18.0057 41.7875C20.0974 39.5458 16.6641 37.7542 15.3536 36.8771C13.8724 35.8713 12.1233 35.3335 10.3328 35.3335C8.54237 35.3335 6.79319 35.8692 5.31197 36.875ZM30.312 36.875C29.0016 37.7542 25.5682 39.5458 27.6599 41.7875C28.6807 42.8833 29.8203 43.6667 31.2495 43.6667H39.4161C40.8453 43.6667 41.9849 42.8833 43.0057 41.7875C45.0974 39.5458 41.6641 37.7542 40.3536 36.8771C38.8724 35.8713 37.1233 35.3335 35.3328 35.3335C33.5424 35.3335 31.7932 35.8692 30.312 36.875ZM14.4995 25.9583C14.4995 27.0634 14.0605 28.1232 13.2791 28.9046C12.4977 29.686 11.4379 30.125 10.3328 30.125C9.22774 30.125 8.16793 29.686 7.38653 28.9046C6.60513 28.1232 6.16614 27.0634 6.16614 25.9583C6.16614 24.8533 6.60513 23.7935 7.38653 23.0121C8.16793 22.2307 9.22774 21.7917 10.3328 21.7917C11.4379 21.7917 12.4977 22.2307 13.2791 23.0121C14.0605 23.7935 14.4995 24.8533 14.4995 25.9583ZM39.4995 25.9583C39.4995 27.0634 39.0605 28.1232 38.2791 28.9046C37.4977 29.686 36.4379 30.125 35.3328 30.125C34.2277 30.125 33.1679 29.686 32.3865 28.9046C31.6051 28.1232 31.1661 27.0634 31.1661 25.9583C31.1661 24.8533 31.6051 23.7935 32.3865 23.0121C33.1679 22.2307 34.2277 21.7917 35.3328 21.7917C36.4379 21.7917 37.4977 22.2307 38.2791 23.0121C39.0605 23.7935 39.4995 24.8533 39.4995 25.9583Z" stroke="#2563EB" stroke-width="3" stroke-linecap="round" stroke-linejoin="round"/>
</svg>
