<svg width="146" height="141" viewBox="0 0 146 141" fill="none" xmlns="http://www.w3.org/2000/svg">
<path d="M2.08203 122V114.5C2.08203 100.576 7.27524 87.2221 16.5192 77.3764C25.7632 67.5307 38.3007 61.9995 51.3737 61.9995" stroke="#2563EB" stroke-width="3" stroke-linecap="round" stroke-linejoin="round"/>
<path d="M99.2858 64.3544C100.355 63.1084 101.656 62.1131 103.106 61.4322C104.556 60.7513 106.123 60.3997 107.708 60.3997C109.292 60.3997 110.86 60.7513 112.31 61.4322C113.76 62.1131 115.061 63.1084 116.129 64.3544C118.418 67.0244 121.692 68.4719 125.086 68.2994C126.67 68.2226 128.252 68.4983 129.73 69.1089C131.208 69.7194 132.551 70.6515 133.672 71.8455C134.793 73.0396 135.668 74.4694 136.241 76.0438C136.814 77.6182 137.073 79.3026 137.001 80.9894C136.839 84.5969 138.198 88.0919 140.705 90.5294C145.669 95.3444 145.669 103.654 140.705 108.469C138.198 110.907 136.839 114.394 137.001 118.009C137.073 119.696 136.814 121.381 136.241 122.955C135.668 124.529 134.793 125.959 133.672 127.153C132.551 128.347 131.208 129.279 129.73 129.89C128.252 130.501 126.67 130.776 125.086 130.699C123.413 130.616 121.743 130.927 120.195 131.608C118.647 132.29 117.259 133.327 116.129 134.644C115.061 135.891 113.76 136.886 112.31 137.567C110.86 138.248 109.292 138.599 107.708 138.599C106.123 138.599 104.556 138.248 103.106 137.567C101.656 136.886 100.355 135.891 99.2858 134.644C98.1563 133.327 96.7683 132.29 95.2202 131.608C93.6722 130.927 92.0021 130.616 90.3288 130.699C88.745 130.776 87.1635 130.501 85.6854 129.89C84.2072 129.279 82.8647 128.347 81.7437 127.153C80.6226 125.959 79.7475 124.529 79.1743 122.955C78.601 121.381 78.3422 119.696 78.4143 118.009C78.4916 116.227 78.1991 114.447 77.5577 112.799C76.9163 111.15 75.9418 109.672 74.7033 108.469C73.5334 107.331 72.599 105.945 71.9597 104.401C71.3204 102.857 70.9902 101.187 70.9902 99.4994C70.9902 97.8116 71.3204 96.1423 71.9597 94.5979C72.599 93.0535 73.5334 91.6679 74.7033 90.5294C77.2172 88.0919 78.5763 84.6044 78.4143 80.9894C78.3422 79.3026 78.601 77.6182 79.1743 76.0438C79.7475 74.4694 80.6226 73.0396 81.7437 71.8455C82.8647 70.6515 84.2072 69.7194 85.6854 69.1089C87.1635 68.4983 88.745 68.2226 90.3288 68.2994C93.7158 68.4719 96.9972 67.0244 99.2858 64.3469V64.3544Z" stroke="#2563EB" stroke-width="3"/>
<path d="M96.1869 99.4995L103.862 107.675L119.227 91.3245M51.3737 61.9995C58.844 61.9995 66.0083 58.8388 71.2905 53.2127C76.5728 47.5866 79.5404 39.956 79.5404 31.9995C79.5404 24.043 76.5728 16.4124 71.2905 10.7863C66.0083 5.16022 58.844 1.99951 51.3737 1.99951C43.9034 1.99951 36.7391 5.16022 31.4569 10.7863C26.1746 16.4124 23.207 24.043 23.207 31.9995C23.207 39.956 26.1746 47.5866 31.4569 53.2127C36.7391 58.8388 43.9034 61.9995 51.3737 61.9995Z" stroke="#2563EB" stroke-width="3" stroke-linecap="round" stroke-linejoin="round"/>
</svg>
