<svg width="50" height="50" viewBox="0 0 50 50" fill="none" xmlns="http://www.w3.org/2000/svg">
<path d="M4.16602 41.6667V39.5833C4.16602 35.7156 5.70247 32.0063 8.43737 29.2714C11.1723 26.5365 14.8816 25 18.7493 25" stroke="#2563EB" stroke-width="3" stroke-linecap="round" stroke-linejoin="round"/>
<path d="M32.9242 25.654C33.2404 25.3078 33.6253 25.0314 34.0543 24.8422C34.4833 24.6531 34.947 24.5554 35.4159 24.5554C35.8847 24.5554 36.3484 24.6531 36.7774 24.8422C37.2064 25.0314 37.5913 25.3078 37.9075 25.654C38.5846 26.3956 39.5534 26.7977 40.5575 26.7498C41.0261 26.7285 41.494 26.805 41.9313 26.9746C42.3687 27.1442 42.7658 27.4031 43.0975 27.7348C43.4292 28.0665 43.6881 28.4637 43.8577 28.901C44.0273 29.3383 44.1039 29.8062 44.0825 30.2748C44.0346 31.2769 44.4367 32.2477 45.1784 32.9248C46.6471 34.2623 46.6471 36.5706 45.1784 37.9081C44.4367 38.5852 44.0346 39.554 44.0825 40.5581C44.1039 41.0267 44.0273 41.4946 43.8577 41.9319C43.6881 42.3693 43.4292 42.7664 43.0975 43.0981C42.7658 43.4298 42.3687 43.6887 41.9313 43.8583C41.494 44.0279 41.0261 44.1045 40.5575 44.0831C40.0625 44.06 39.5684 44.1462 39.1104 44.3356C38.6524 44.525 38.2417 44.8129 37.9075 45.179C37.5913 45.5251 37.2064 45.8016 36.7774 45.9907C36.3484 46.1798 35.8847 46.2775 35.4159 46.2775C34.947 46.2775 34.4833 46.1798 34.0543 45.9907C33.6253 45.8016 33.2404 45.5251 32.9242 45.179C32.59 44.8129 32.1794 44.525 31.7214 44.3356C31.2634 44.1462 30.7693 44.06 30.2742 44.0831C29.8056 44.1045 29.3377 44.0279 28.9004 43.8583C28.4631 43.6887 28.0659 43.4298 27.7342 43.0981C27.4025 42.7664 27.1436 42.3693 26.974 41.9319C26.8044 41.4946 26.7279 41.0267 26.7492 40.5581C26.7721 40.0629 26.6855 39.5687 26.4958 39.1107C26.306 38.6527 26.0177 38.2421 25.6513 37.9081C25.3051 37.5919 25.0287 37.207 24.8396 36.778C24.6504 36.349 24.5527 35.8853 24.5527 35.4165C24.5527 34.9476 24.6504 34.4839 24.8396 34.0549C25.0287 33.6259 25.3051 33.241 25.6513 32.9248C26.395 32.2477 26.7971 31.279 26.7492 30.2748C26.7279 29.8062 26.8044 29.3383 26.974 28.901C27.1436 28.4637 27.4025 28.0665 27.7342 27.7348C28.0659 27.4031 28.4631 27.1442 28.9004 26.9746C29.3377 26.805 29.8056 26.7285 30.2742 26.7498C31.2763 26.7977 32.2471 26.3956 32.9242 25.6519V25.654Z" stroke="#2563EB" stroke-width="3"/>
<path d="M32.0077 35.4166L34.2785 37.6874L38.8243 33.1458M18.7493 24.9999C20.9595 24.9999 23.0791 24.1219 24.6419 22.5591C26.2047 20.9963 27.0827 18.8767 27.0827 16.6666C27.0827 14.4564 26.2047 12.3368 24.6419 10.774C23.0791 9.21123 20.9595 8.33325 18.7493 8.33325C16.5392 8.33325 14.4196 9.21123 12.8568 10.774C11.294 12.3368 10.416 14.4564 10.416 16.6666C10.416 18.8767 11.294 20.9963 12.8568 22.5591C14.4196 24.1219 16.5392 24.9999 18.7493 24.9999Z" stroke="#2563EB" stroke-width="3" stroke-linecap="round" stroke-linejoin="round"/>
</svg>
